<?xml version="1.0" encoding="UTF-8"?>
<svg viewBox="36.49 49.908 154.66 37.736" xmlns="http://www.w3.org/2000/svg" >
<g transform="matrix(.10377 0 0 .10377 36.49 55.397)">
<path d="m148.24 0c-81.869 0-148.24 66.367-148.24 148.24s66.367 148.24 148.24 148.24c81.867 0 148.23-66.367 148.23-148.24s-66.367-148.24-148.23-148.24zm73.838 38.495-9.446 13.962c-12.569-8.467-26.897-14.519-42.319-17.506l3.314-16.525c17.37 3.359 33.793 10.162 48.451 20.069zm-66.172 175.53v17.211h-14v-17.124c-10-1.099-19.384-4.93-26.44-11.495-7.058-6.564-10.286-16.215-10.054-28.941l0.358-0.439h24.726c0 8 1.779 13.311 5.336 16.664 3.558 3.355 8.082 5.035 13.578 5.035 5.263 0 9.297-1.4 12.102-4.207 2.805-2.805 4.208-6.577 4.208-11.32 0-4.686-1.345-8.502-4.034-11.451-2.689-2.95-7.303-5.696-13.838-8.242-12.841-4.686-22.371-9.904-28.588-15.66-6.218-5.755-9.326-13.867-9.326-24.336 0-9.718 2.873-17.684 9.089-23.902 6.217-6.217 14.881-9.876 24.881-10.976v-18.606h14v18.778c10 1.505 18.31 5.756 24.123 12.754 5.813 6.999 8.728 15.976 8.613 27.138l-0.193 0.33h-24.727c0-7-1.403-11.984-4.208-15.686-2.806-3.701-6.637-5.501-11.495-5.501-4.976 0-8.676 1.457-11.105 4.32-2.43 2.863-3.643 6.681-3.643 11.423 0 4.511 1.286 8.176 3.86 10.981 2.573 2.806 7.302 5.571 14.186 8.289 12.782 5.032 22.254 10.412 28.413 16.139 6.16 5.726 9.24 13.738 9.24 24.033 0 10.064-3.361 18.105-9.549 24.12-6.189 6.017-14.513 9.573-25.513 10.671zm-33.053-195.6 3.192 16.549c-15.417 3.004-29.739 9.069-42.3 17.55l-9.343-14.03c14.658-9.907 31.08-16.71 48.451-20.069zm-84.354 55.971 13.962 9.446c-8.467 12.569-14.518 26.896-17.505 42.318l-16.526-3.314c3.36-17.369 10.163-33.792 20.069-48.45zm-1e-3 147.68c-9.907-14.658-16.709-31.081-20.068-48.451l16.549-3.192c3.004 15.417 9.069 29.74 17.55 42.301l-14.031 9.342zm35.902 35.903 9.446-13.962c12.569 8.468 26.897 14.52 42.32 17.507l-3.314 16.526c-17.371-3.361-33.795-10.163-48.452-20.071zm99.226 20.071-3.192-16.549c15.418-3.004 29.74-9.069 42.302-17.551l9.343 14.03c-14.659 9.908-31.083 16.711-48.453 20.07zm84.355-55.973-13.962-9.446c8.467-12.569 14.518-26.898 17.505-42.319l16.525 3.314c-3.36 17.37-10.162 33.793-20.068 48.451zm3.519-96.033c-3.004-15.417-9.069-29.74-17.551-42.302l14.03-9.343c9.907 14.658 16.71 31.082 20.069 48.452l-16.548 3.193z"/>
</g>
<path transform="matrix(1.0084 0 0 1.2211 1.2612 -16)" d="m71.523 78.026q-0.288 0-0.42-0.096t-0.132-0.264q0-0.216 0.216-0.276t0.432-0.156q0.552-0.216 0.972-0.696t0.516-1.2q0.12-0.888 0.264-2.436t0.312-3.456 0.336-3.876q0.024-0.12 0.024-0.336t0-0.48q0-0.48-0.156-0.744t-0.468-0.432q-0.264-0.144-0.576-0.276t-0.672-0.228q-0.288-0.072-0.468-0.192t-0.18-0.336 0.18-0.3 0.444-0.084q0.384 0 0.924 0.024t1.188 0.036 1.332 0.036 1.332 0.024q0.192 0 0.36 0.144t0.216 0.288q0.192 0.48 0.336 0.876t0.336 0.876l3.456 8.136q0.048 0.096 0.108 0.096t0.084-0.096l3.144-7.56q0.192-0.936 0.3-1.476t0.204-0.828q0.096-0.312 0.408-0.312h1.08q1.056-0.048 2.22-0.156t1.836-0.108q0.264 0 0.444 0.084t0.18 0.3-0.168 0.312-0.384 0.168q-0.096 0.024-0.252 0.096t-0.252 0.12q-0.72 0.336-1.044 0.744t-0.276 1.32q0.072 1.752 0.144 3t0.132 2.304 0.144 2.22 0.18 2.772q0.048 0.6 0.528 0.972t1.2 0.564q0.216 0.072 0.372 0.168t0.156 0.336q0 0.168-0.132 0.264t-0.324 0.096q-0.504 0-1.236-0.024t-1.452-0.048-1.2-0.024-1.116 0.024-1.296 0.06-1.188 0.036q-0.192 0-0.348-0.096t-0.156-0.264q0-0.216 0.156-0.348t0.372-0.18q0.912-0.192 1.272-0.492t0.312-1.02q-0.072-1.44-0.12-2.928t-0.084-2.94-0.108-2.748q0-0.144-0.072-0.132t-0.144 0.18l-4.368 10.824q-0.144 0.384-0.396 0.312t-0.348-0.264q-1.248-2.784-2.568-5.496t-2.352-5.256q-0.096-0.24-0.252-0.168t-0.18 0.384q-0.048 1.08-0.06 2.52t0.012 2.904 0.024 2.64q0 0.672 0.432 1.056t1.392 0.624q0.216 0.048 0.432 0.156t0.216 0.348q0 0.168-0.192 0.264t-0.384 0.096q-0.648 0-1.008-0.024t-0.66-0.036-0.804-0.012q-0.552 0-1.176 0.024t-1.056 0.048-0.432 0.024z"/>
<path transform="matrix(1.0084 0 0 1.2211 1.2612 -16)" d="m95.276 78.29q-0.696 0-1.272-0.3t-0.912-0.816-0.336-1.14q0-0.84 0.54-1.416t1.572-1.032l2.064-0.912q0.48-0.216 0.6-0.396t0.12-0.636l0.024-1.32q0.024-0.696-0.216-1.068t-0.744-0.372q-0.288 0-0.6 0.132t-0.456 0.3q-0.072 0.096-0.096 0.216t-0.024 0.24q0 0.144 0.024 0.372t0.024 0.372q0 0.168-0.408 0.396t-0.936 0.408-0.912 0.18q-0.192 0-0.324-0.156t-0.132-0.396q0-0.384 0.264-0.744t0.888-0.864q0.648-0.528 1.416-0.936t1.512-0.66 1.272-0.252q1.368 0 2.184 0.876t0.768 2.34l-0.12 4.656q-0.024 0.552 0.18 0.948t0.516 0.396q0.432 0 0.768-0.312 0.072-0.072 0.144-0.072 0.12 0 0.204 0.084t0.084 0.204q0 0.288-0.48 0.768-0.456 0.456-0.984 0.684t-1.104 0.228q-1.392 0-2.328-1.392h-0.048q-0.792 0.744-1.416 1.068t-1.32 0.324zm1.488-1.656q0.216 0 0.36-0.072t0.264-0.24q0.072-0.096 0.108-0.24t0.036-0.312l0.072-1.848q0-0.216-0.072-0.276t-0.168-0.06q-0.048 0-0.108 0.012t-0.132 0.06q-0.576 0.312-0.876 0.636t-0.3 1.164q0 0.696 0.276 0.936t0.54 0.24z"/>
<path transform="matrix(1.0084 0 0 1.2211 1.2612 -16)" d="m103.56 78.05q-0.168 0-0.384-0.048t-0.216-0.24q0-0.216 0.096-0.324t0.336-0.204 0.504-0.324 0.72-0.852l2.304-3.12q0.144-0.192 0.144-0.312t-0.12-0.312l-1.776-2.592q-0.312-0.48-0.552-0.792t-0.648-0.456q-0.24-0.096-0.336-0.204t-0.096-0.324q0-0.192 0.216-0.24t0.384-0.048q0.6 0 0.948 0.036t0.684 0.072 0.864 0.036q0.768 0 1.284-0.072t1.404-0.072q0.168 0 0.372 0.072t0.204 0.264q0 0.216-0.192 0.288t-0.384 0.168q-0.24 0.096-0.468 0.228t-0.228 0.396q0 0.144 0.096 0.336t0.216 0.384l1.104 1.608q0.12 0.216 0.216 0l0.624-1.152q0.144-0.264 0.252-0.588t0.084-0.588q0-0.408-0.456-0.576-0.192-0.096-0.336-0.168t-0.144-0.288q0-0.192 0.204-0.264t0.372-0.072q0.696 0.024 1.008 0.024t0.624 0q0.288 0 0.564-0.024t0.972-0.048q0.168 0 0.384 0.048t0.216 0.24q0 0.216-0.096 0.324t-0.336 0.204-0.492 0.324-0.732 0.852l-1.776 2.304q-0.192 0.264-0.168 0.396t0.144 0.324l1.944 3.024q0.336 0.504 0.768 0.9t0.888 0.564q0.24 0.096 0.336 0.204t0.096 0.324q0 0.192-0.216 0.24t-0.384 0.048q-0.576 0-1.044-0.036t-0.912-0.072-0.972-0.036q-0.768 0-1.392 0.072t-1.512 0.072q-0.576 0-0.576-0.336 0-0.216 0.144-0.3t0.384-0.156q0.312-0.096 0.504-0.3t0.192-0.684q0-0.264-0.048-0.456t-0.264-0.504l-1.176-1.68q-0.072-0.072-0.144 0l-1.032 1.896q-0.096 0.168-0.24 0.468t-0.144 0.588q0 0.264 0.108 0.444t0.348 0.3q0.192 0.096 0.36 0.168t0.168 0.288q0 0.192-0.204 0.264t-0.372 0.072q-0.72-0.024-0.96-0.036t-0.552-0.012q-0.288 0-0.648 0t-1.056 0.048z"/>
<path transform="matrix(1.0084 0 0 1.2211 1.2612 -16)" d="m116.2 78.026q-0.144 0-0.264-0.096t-0.12-0.24q0-0.192 0.108-0.312t0.3-0.168q0.648-0.168 0.9-0.336t0.252-0.552v-5.184q0-0.864-0.252-1.164t-0.78-0.372q-0.144-0.024-0.216-0.156t-0.072-0.3q0-0.384 0.288-0.432 1.296-0.264 2.352-0.708t1.608-0.684q0.432-0.192 0.528-0.192 0.336 0 0.336 0.336-0.024 0.456-0.108 1.068t-0.144 1.26-0.06 1.248v5.256q0 0.312 0.24 0.504t0.912 0.408q0.192 0.072 0.312 0.168t0.12 0.288q0 0.336-0.36 0.336-0.456 0-0.996-0.024t-1.056-0.048-0.948-0.024q-0.408 0-0.9 0.024t-0.996 0.06-0.984 0.036zm2.784-11.784q-0.816 0-1.416-0.6t-0.6-1.416q0-0.888 0.6-1.488t1.416-0.6q0.888 0 1.488 0.6t0.6 1.488q0 0.816-0.6 1.416t-1.488 0.6z"/>
<path transform="matrix(1.0084 0 0 1.2211 1.2612 -16)" d="m129.35 78.026q-0.144 0-0.288-0.096t-0.144-0.264q0-0.408 0.456-0.528 0.912-0.192 1.248-0.48t0.336-1.032v-10.896q0-0.768-0.3-1.092t-1.14-0.516q-0.288-0.072-0.396-0.216t-0.108-0.288q0-0.168 0.132-0.276t0.348-0.108q0.528 0 1.152 0.024t1.224 0.06 1.08 0.036q0.576 0 1.02-0.06t0.996-0.12 1.44-0.06q2.952 0 4.68 1.26t1.728 3.444q0 1.512-0.648 2.796t-1.956 2.064-3.3 0.78q-0.648 0-0.984-0.192t-0.336-0.48q0-0.192 0.168-0.288t0.288-0.096q0.288 0 0.468 0.06t0.492 0.06q0.912 0 1.38-1.116t0.468-2.892q0-2.28-0.636-3.276t-1.812-0.996q-0.672 0-1.008 0.312t-0.336 0.96l-0.024 11.088q0 0.744 0.42 1.032t1.452 0.504q0.216 0.048 0.336 0.156t0.12 0.348q0 0.168-0.096 0.264t-0.288 0.096q-0.504 0-1.272-0.024t-1.524-0.048-1.236-0.024-1.116 0.024-1.296 0.06-1.188 0.036z"/>
<path transform="matrix(1.0084 0 0 1.2211 1.2612 -16)" d="m148.52 78.29q-1.464 0-2.64-0.648t-1.872-1.8-0.696-2.616q0-1.176 0.444-2.22t1.224-1.836 1.824-1.248 2.244-0.456q1.512 0 2.724 0.696t1.932 1.848 0.72 2.52q0 1.56-0.66 2.88t-1.968 2.1-3.276 0.78zm0.456-1.128q0.432 0 0.744-0.18t0.528-0.516q0.288-0.48 0.408-1.32t0.12-2.04q0-1.344-0.264-2.352t-0.732-1.584-1.092-0.576q-0.312 0-0.576 0.108t-0.456 0.3q-0.408 0.432-0.564 1.332t-0.156 2.292q0 1.128 0.264 2.172t0.732 1.704 1.044 0.66z"/>
<path transform="matrix(1.0084 0 0 1.2211 1.2612 -16)" d="m155.41 78.026q-0.48 0-0.48-0.36 0-0.192 0.144-0.3t0.408-0.204q0.36-0.12 0.624-0.252t0.264-0.66v-11.4q0-0.648-0.156-1.128t-0.756-0.6q-0.264-0.048-0.264-0.384 0-0.312 0.24-0.36 0.6-0.12 1.368-0.372t1.476-0.516 1.068-0.384q0.216-0.072 0.336-0.072 0.168 0 0.216 0.096t0.048 0.216q0 0.168-0.048 0.564t-0.072 0.732l0.024 9.216q0 0.312 0.216 0.312 0.072 0 0.156-0.048t0.132-0.072q0.864-0.768 1.572-1.572t0.948-1.188q0.096-0.144 0.156-0.252t0.06-0.18q0-0.12-0.192-0.252t-0.6-0.18q-0.288-0.048-0.288-0.288 0-0.216 0.18-0.276t0.348-0.06h1.176q0.432 0 1.188-0.036t1.488-0.096 1.044-0.084q0.264 0 0.264 0.288 0 0.192-0.144 0.324t-0.408 0.18q-0.408 0.096-0.984 0.336t-1.2 0.6q-0.456 0.24-0.912 0.54t-0.852 0.612-0.708 0.624q-0.12 0.12-0.12 0.264 0 0.096 0.06 0.156t0.108 0.132q0.576 0.744 1.056 1.452t0.984 1.38 1.128 1.392q0.408 0.456 0.996 0.828t0.972 0.516q0.192 0.072 0.42 0.168t0.228 0.288q0 0.36-0.528 0.36-1.56 0-2.988-0.036t-2.628-0.036q-0.48 0-0.48-0.36 0-0.192 0.144-0.3t0.408-0.204q0.192-0.072 0.252-0.156t0.084-0.18q0-0.12-0.084-0.252t-0.228-0.324l-2.184-3.192q-0.048-0.048-0.096-0.048-0.144 0.048-0.144 0.192 0 0.36 0 0.732t0 0.732q0 0.384 0 0.828t0 0.852q0 0.384 0.156 0.564t0.54 0.3q0.192 0.072 0.336 0.192t0.144 0.312q0 0.168-0.108 0.276t-0.3 0.108q-0.48 0-0.912-0.036t-0.84-0.06-0.84-0.024q-0.408 0-0.828 0.024t-0.864 0.06-0.924 0.036z"/>
<path transform="matrix(1.0084 0 0 1.2211 1.2612 -16)" d="m172.54 78.29q-1.296 0-2.328-0.696t-1.632-1.884-0.6-2.676q0-1.536 0.72-2.796t1.944-2.004 2.712-0.744q1.032 0 1.872 0.456t1.344 1.212 0.504 1.716q0 0.936-0.744 0.936h-4.752q-0.336 0-0.492 0.192t-0.156 0.648q0 0.864 0.384 1.572t1.056 1.116 1.56 0.408q0.696 0 1.284-0.264t1.188-0.72q0.072-0.048 0.168-0.108t0.168-0.06q0.264 0 0.264 0.312 0 0.216-0.144 0.648-0.216 0.648-0.792 1.284t-1.476 1.044-2.052 0.408zm-0.96-7.536h1.272q0.696 0 0.924-0.024t0.42-0.096q0.12-0.048 0.192-0.264t0.072-0.456q0-0.624-0.396-1.02t-1.02-0.396q-0.48 0-0.9 0.276t-0.684 0.708-0.24 0.912q0 0.36 0.36 0.36z"/>
<path transform="matrix(1.0084 0 0 1.2211 1.2612 -16)" d="m178.59 78.026q-0.168 0-0.324-0.096t-0.156-0.264q0-0.192 0.156-0.312t0.396-0.192q0.552-0.168 0.72-0.348t0.168-0.564v-5.592q0-0.48-0.12-0.768t-0.528-0.408q-0.12-0.048-0.228-0.132t-0.108-0.324q0-0.36 0.312-0.432 0.792-0.192 1.764-0.492t1.692-0.636q0.12-0.072 0.312-0.168t0.288-0.096q0.24 0 0.24 0.288 0 0.12-0.012 0.504t-0.036 0.78-0.024 0.636 0.096 0.24q0.36-0.504 0.852-1.008t1.08-0.84 1.188-0.336q0.888 0 1.248 0.336t0.36 0.864q0 0.384-0.216 0.852t-0.552 0.804-0.72 0.336q-0.24 0-0.492-0.12t-0.516-0.24q-0.24-0.12-0.48-0.228t-0.432-0.108q-0.624 0-1.056 0.468t-0.432 1.86v3.696q0 0.528 0.288 0.768t0.96 0.432q0.264 0.072 0.396 0.18t0.132 0.3q0 0.36-0.384 0.36-0.72 0-1.584-0.06t-1.488-0.06q-0.408 0-0.864 0.024t-0.936 0.06-0.96 0.036z"/>
</svg>
