<?xml version="1.0" standalone="no"?>
<!DOCTYPE svg PUBLIC "-//W3C//DTD SVG 1.1//EN" "http://www.w3.org/Graphics/SVG/1.1/DTD/svg11.dtd" >
<svg xmlns="http://www.w3.org/2000/svg" xmlns:xlink="http://www.w3.org/1999/xlink" version="1.1" viewBox="-10 0 524 1000">
  <g transform="matrix(1 0 0 -1 0 800)">
   <path fill="currentColor"
d="M261 -15q-85 0 -133.5 32t-69 89.5t-20.5 132.5v29h167v-11v-18q0 -40 5 -65t18 -36.5t36 -11.5t34.5 12t15.5 36t4 60q0 60 -16.5 91.5t-68.5 32.5h-11h-20v115h14h13q53 0 71 29t18 90q0 47 -12.5 72t-46.5 25q-33 0 -43.5 -28t-10.5 -72v-20.5v-21.5h-167v49
q0 73 26.5 123.5t76 76.5t118.5 26q70 0 120 -25t77 -73.5t27 -120.5q0 -71 -29 -119t-70 -59q28 -10 50.5 -32t35.5 -59.5t13 -95.5q0 -74 -21.5 -131t-70.5 -89.5t-130 -32.5z" />
  </g>

</svg>
