<?xml version="1.0" standalone="no"?>
<!DOCTYPE svg PUBLIC "-//W3C//DTD SVG 1.1//EN" "http://www.w3.org/Graphics/SVG/1.1/DTD/svg11.dtd" >
<svg xmlns="http://www.w3.org/2000/svg" xmlns:xlink="http://www.w3.org/1999/xlink" version="1.1" viewBox="-10 0 519 1000">
  <g transform="matrix(1 0 0 -1 0 800)">
   <path fill="currentColor"
d="M255 -15q-89 0 -134.5 31.5t-61.5 88.5t-16 132h161q0 -46 5 -75t18.5 -41.5t38.5 -11.5q26 1 37 21t13.5 57.5t2.5 90.5q0 40 -4.5 71t-18 49.5t-40.5 18.5q-25 0 -41 -18t-23 -56h-144l15 467h378v-140h-244l-9 -167q10 14 38 24.5t60 13.5q62 7 104.5 -22.5t64 -89.5
t21.5 -147q0 -65 -8 -119.5t-31 -94t-67 -61.5t-115 -22z" />
  </g>

</svg>
