<?xml version="1.0" standalone="no"?>
<!DOCTYPE svg PUBLIC "-//W3C//DTD SVG 1.1//EN" "http://www.w3.org/Graphics/SVG/1.1/DTD/svg11.dtd" >
<svg xmlns="http://www.w3.org/2000/svg" xmlns:xlink="http://www.w3.org/1999/xlink" version="1.1" viewBox="-10 0 548 1000">
  <g transform="matrix(1 0 0 -1 0 800)">
   <path fill="currentColor"
d="M276 -12q-79 0 -128.5 34.5t-72.5 94.5t-23 137v293q0 79 18.5 141t66.5 97.5t138 35.5q78 0 123 -24t64 -70t19 -114q0 -4 0.5 -7.5t0.5 -6.5h-157q0 49 -7.5 72.5t-41.5 23.5q-23 0 -34.5 -14t-15.5 -49t-4 -98v-72q12 21 39 32.5t61 12.5q64 2 102.5 -29t55.5 -84.5
t17 -119.5q0 -85 -20 -149.5t-68 -100.5t-133 -36zM278 111q23 0 33.5 15.5t14 46t3.5 75.5q0 40 -2.5 69t-13.5 45.5t-37 16.5q-12 0 -23 -5t-19 -12.5t-12 -14.5v-132q0 -27 4.5 -51t17 -38.5t34.5 -14.5z" />
  </g>

</svg>
