<?xml version="1.0" standalone="no"?>
<!DOCTYPE svg PUBLIC "-//W3C//DTD SVG 1.1//EN" "http://www.w3.org/Graphics/SVG/1.1/DTD/svg11.dtd" >
<svg xmlns="http://www.w3.org/2000/svg" xmlns:xlink="http://www.w3.org/1999/xlink" version="1.1" viewBox="-10 0 531 1000">
  <g transform="matrix(1 0 0 -1 0 800)">
   <path fill="currentColor"
d="M260 -13q-82 0 -131 32.5t-70 90t-21 131.5q1 30 6.5 58.5t17 53t29 43t41.5 30.5q-31 23 -55 66.5t-26 110.5q-1 68 22.5 117t70.5 75t116 26q70 0 116.5 -26.5t69.5 -75t21 -116.5q-1 -68 -24 -111.5t-55 -65.5q24 -12 41.5 -30.5t29 -43t17.5 -53t6 -58.5
q2 -74 -19.5 -131.5t-70.5 -90t-132 -32.5zM260 110q27 0 39 20t15 47.5t3 50.5q1 31 -2.5 60t-15.5 47.5t-39 18.5q-26 0 -38 -18.5t-15.5 -47t-3.5 -60.5q0 -23 3 -51t15.5 -47.5t38.5 -19.5zM260 486q17 0 28 13.5t16.5 40.5t5.5 67q0 41 -12.5 65t-37.5 24t-38.5 -24
t-13.5 -64t5.5 -67.5t17.5 -41t29 -13.5z" />
  </g>

</svg>
