<?xml version="1.0" standalone="no"?>
<!DOCTYPE svg PUBLIC "-//W3C//DTD SVG 20010904//EN"
 "http://www.w3.org/TR/2001/REC-SVG-20010904/DTD/svg10.dtd">
<svg version="1.0" xmlns="http://www.w3.org/2000/svg"
 width="700.000000pt" height="700.000000pt" viewBox="0 0 700.000000 700.000000"
 preserveAspectRatio="xMidYMid meet">
<metadata>
Created by potrace 1.14, written by Peter Selinger 2001-2017
</metadata>
<g transform="translate(0.000000,700.000000) scale(0.100000,-0.100000)"
fill="#000000" stroke="none">
<path d="M3278 6996 c-1 -2 -39 -6 -83 -10 -478 -37 -996 -198 -1425 -444
-175 -100 -412 -265 -531 -369 -338 -295 -598 -613 -801 -978 -48 -86 -148
-289 -148 -301 0 -2 -11 -27 -24 -56 -60 -133 -155 -432 -181 -569 -3 -13 -11
-58 -20 -99 -22 -115 -30 -160 -41 -255 -26 -230 -26 -667 1 -826 2 -13 6 -46
9 -74 9 -78 22 -152 51 -285 21 -96 91 -339 114 -395 5 -11 25 -65 46 -120 64
-170 213 -461 314 -615 214 -324 467 -601 775 -848 89 -72 367 -262 382 -262
4 0 15 -6 23 -14 26 -22 298 -158 411 -205 267 -111 589 -200 859 -237 25 -3
57 -8 71 -10 163 -25 682 -25 842 1 13 2 46 7 73 10 72 10 86 12 120 19 17 3
44 8 60 11 343 65 740 212 1039 384 49 28 93 51 97 51 5 0 9 5 9 10 0 6 5 10
10 10 15 0 220 141 330 227 151 117 324 281 450 422 36 41 70 79 76 85 6 6 48
61 94 121 150 197 277 405 383 628 26 53 47 99 47 102 0 2 11 28 24 57 57 127
151 421 182 573 17 81 54 301 59 350 4 33 9 71 11 85 9 46 11 524 4 605 -15
153 -21 210 -25 225 -2 8 -7 35 -10 60 -17 129 -80 384 -136 552 -348 1037
-1166 1855 -2204 2206 -167 56 -419 119 -555 137 -19 3 -46 7 -60 10 -13 2
-52 7 -86 11 -33 3 -74 8 -90 10 -32 5 -540 14 -546 10z m977 -467 c286 -67
631 -212 881 -369 54 -34 101 -64 103 -66 6 -6 -212 -324 -222 -324 -5 0 -48
24 -95 53 -234 144 -490 251 -770 322 -109 28 -127 35 -125 51 3 25 10 64 17
94 3 14 8 36 10 50 2 14 12 61 22 105 9 44 18 89 20 100 1 11 3 21 3 22 1 0
16 -3 34 -8 17 -5 73 -18 122 -30z m-1351 14 c5 -19 12 -57 21 -112 3 -19 7
-37 9 -40 2 -3 7 -28 10 -55 4 -27 9 -52 11 -56 2 -3 6 -25 10 -50 4 -25 8
-47 10 -51 2 -3 -26 -11 -63 -19 -267 -52 -626 -201 -876 -362 l-59 -38 -109
162 c-59 90 -108 165 -108 168 0 11 234 147 355 208 201 101 441 189 650 237
123 29 132 29 139 8z m819 -1112 c4 0 7 -100 7 -221 0 -209 1 -220 19 -220 41
0 201 -53 286 -94 213 -105 369 -300 431 -538 21 -81 24 -106 30 -219 l6 -95
-290 0 c-160 1 -293 3 -296 6 -2 3 -6 32 -7 65 -7 174 -77 313 -194 385 -81
50 -248 54 -342 9 -119 -57 -184 -188 -177 -352 9 -213 114 -317 461 -456 357
-143 611 -309 723 -471 89 -130 122 -250 124 -445 1 -173 -17 -262 -81 -394
-39 -78 -60 -108 -133 -180 -94 -94 -172 -145 -295 -192 -71 -28 -229 -66
-293 -72 -22 -1 -22 -2 -22 -162 1 -88 1 -179 1 -202 l-1 -43 -165 0 -165 0 0
203 0 203 -30 2 c-136 10 -338 86 -474 176 -197 132 -281 262 -342 531 -3 11
-7 73 -11 138 l-6 117 297 0 296 0 1 -27 c12 -321 161 -481 453 -484 158 -2
280 65 341 188 27 54 30 66 30 173 0 143 -21 204 -96 280 -79 80 -168 130
-384 215 -391 153 -642 328 -738 513 -97 184 -118 462 -52 675 75 244 274 428
552 511 43 13 101 26 128 30 90 13 82 -10 81 234 l-1 218 160 -2 c88 -1 163
-2 168 -3z m-2668 -286 c200 -135 188 -125 172 -144 -65 -76 -234 -416 -296
-594 -36 -104 -84 -275 -98 -347 -2 -14 -7 -28 -11 -31 -4 -3 -90 10 -192 31
-136 27 -186 41 -188 52 -4 19 39 198 77 320 39 127 111 310 164 417 72 147
213 390 227 391 3 0 68 -43 145 -95z m5045 86 c0 -5 6 -16 13 -23 15 -16 77
-117 77 -125 0 -4 6 -14 14 -22 20 -23 138 -260 179 -361 80 -194 164 -474
170 -564 1 -30 -2 -39 -16 -41 -10 -2 -52 -10 -95 -19 -42 -8 -89 -17 -105
-20 -15 -3 -35 -7 -45 -10 -9 -3 -34 -7 -54 -10 -21 -3 -43 -7 -49 -8 -7 -2
-21 34 -36 92 -79 321 -211 631 -370 869 l-23 34 162 108 c90 60 166 109 171
109 4 0 7 -4 7 -9z m-5234 -2431 c10 -47 93 -289 124 -362 50 -116 124 -258
189 -364 l60 -98 -161 -108 c-154 -103 -163 -108 -179 -91 -53 55 -226 381
-298 560 -76 193 -175 542 -158 560 4 3 91 22 194 42 l188 37 18 -75 c10 -42
20 -87 23 -101z m5364 166 c19 -3 60 -10 90 -16 30 -6 65 -13 78 -16 12 -2 34
-6 50 -10 15 -3 44 -8 65 -11 21 -3 41 -11 43 -18 7 -18 -39 -214 -81 -345
-83 -259 -204 -514 -349 -740 -16 -25 -31 -47 -32 -49 -3 -3 -279 179 -315
208 -17 13 -16 17 10 55 145 210 304 584 362 847 21 97 26 112 37 105 4 -2 23
-7 42 -10z m-3942 -1906 c66 -33 123 -60 126 -60 4 0 26 -9 49 -19 107 -49
444 -151 499 -151 12 0 16 -6 13 -22 -33 -176 -70 -350 -76 -360 -6 -9 -24 -8
-86 6 -177 40 -410 116 -563 183 -196 87 -494 258 -486 279 2 6 52 81 110 167
l106 155 94 -59 c52 -32 148 -86 214 -119z m2936 -164 c-94 -70 -394 -229
-539 -286 -201 -80 -422 -147 -552 -167 -38 -5 -31 -26 -77 215 -29 150 -31
172 -17 172 30 0 246 59 351 95 189 66 367 150 534 253 l100 61 110 -165 c104
-156 108 -165 90 -178z"/>
</g>
</svg>
